<?xml version="1.0" encoding="utf-8"?>
<!-- Generator: Adobe Illustrator 21.0.2, SVG Export Plug-In . SVG Version: 6.00 Build 0)  -->
<svg version="1.1" id="Capa_1" xmlns="http://www.w3.org/2000/svg" xmlns:xlink="http://www.w3.org/1999/xlink" x="0px" y="0px"
	 viewBox="0 0 50 50" style="enable-background:new 0 0 50 50;" xml:space="preserve">
<style type="text/css">
	.st0{fill:#FFFFFF;}
</style>
<g>
	<path class="st0" d="M25,2C12.3,2,2,12.3,2,25c0,12.7,10.3,23,23,23s23-10.3,23-23C48,12.3,37.7,2,25,2z M36.6,12.3
		c0.2-0.2,0.5-0.2,0.6,0c0.2,0.2,0.2,0.5,0,0.6c-0.2,0.2-0.5,0.2-0.6,0C36.4,12.8,36.4,12.5,36.6,12.3z M34.8,14.3
		c0.2,0,0.4,0.2,0.4,0.4s-0.2,0.4-0.4,0.4c-0.2,0-0.4-0.2-0.4-0.4S34.6,14.3,34.8,14.3z M30.8,14.3c0.2,0,0.4,0.2,0.4,0.4
		c0,0.2-0.2,0.4-0.4,0.4s-0.4-0.2-0.4-0.4C30.4,14.5,30.6,14.3,30.8,14.3z M29.8,13.2c0.2,0,0.4,0.2,0.4,0.4c0,0.2-0.2,0.4-0.4,0.4
		c-0.2,0-0.4-0.2-0.4-0.4C29.4,13.4,29.6,13.2,29.8,13.2z M28.4,12.3c0.2-0.2,0.5-0.2,0.6,0c0.2,0.2,0.2,0.5,0,0.6
		c-0.2,0.2-0.5,0.2-0.6,0C28.3,12.8,28.3,12.5,28.4,12.3z M20.6,40c-5.3,0-9.6-4.3-9.6-9.6c0-4,2.5-7.5,6.1-8.9v-1.8
		c0-0.5,0.4-0.9,0.9-0.9H20c0.3-2.6,2.4-3.5,3.8-3.5c0.7,0,1.6,0.4,2.5,0.7c0.9,0.4,1.9,0.8,2.5,0.8c1,0,3-0.5,4-0.7v1.2
		c-1.1,0.3-2.9,0.7-4,0.7c-0.9,0-1.9-0.4-3-0.8c-0.8-0.3-1.6-0.6-2-0.6c-0.7,0-2.3,0.4-2.6,2.4h2c0.5,0,0.9,0.4,0.9,0.9v1.9
		c3.5,1.4,6,4.9,6,8.9C30.2,35.7,25.9,40,20.6,40z M29.2,20.8c0,0.2-0.2,0.4-0.4,0.4c-0.2,0-0.4-0.2-0.4-0.4s0.2-0.4,0.4-0.4
		C29,20.3,29.2,20.5,29.2,20.8z M29.8,20.2c-0.2,0-0.4-0.2-0.4-0.4c0-0.2,0.2-0.4,0.4-0.4s0.4,0.2,0.4,0.4
		C30.3,20,30.1,20.2,29.8,20.2z M31.2,19c-0.2,0.2-0.5,0.2-0.6,0c-0.2-0.2-0.2-0.5,0-0.6c0.2-0.2,0.5-0.2,0.6,0
		C31.4,18.5,31.4,18.8,31.2,19z M32.8,22.9c-0.2,0-0.4-0.2-0.4-0.4c0-0.2,0.2-0.4,0.4-0.4s0.4,0.2,0.4,0.4
		C33.3,22.7,33.1,22.9,32.8,22.9z M32.8,21.4c-0.2,0-0.4-0.2-0.4-0.4c0-0.2,0.2-0.4,0.4-0.4s0.4,0.2,0.4,0.4
		C33.3,21.2,33.1,21.4,32.8,21.4z M32.8,20c-0.2,0-0.4-0.2-0.4-0.4s0.2-0.4,0.4-0.4s0.4,0.2,0.4,0.4S33.1,20,32.8,20z M32.8,14.3
		c-0.2,0-0.4-0.2-0.4-0.4c0-0.2,0.2-0.4,0.4-0.4s0.4,0.2,0.4,0.4C33.3,14.2,33.1,14.3,32.8,14.3z M32.8,12.9c-0.2,0-0.4-0.2-0.4-0.4
		s0.2-0.4,0.4-0.4s0.4,0.2,0.4,0.4S33.1,12.9,32.8,12.9z M32.8,11.4c-0.2,0-0.4-0.2-0.4-0.4s0.2-0.4,0.4-0.4s0.4,0.2,0.4,0.4
		S33.1,11.4,32.8,11.4z M35.1,19c-0.2,0.2-0.5,0.2-0.6,0c-0.2-0.2-0.2-0.5,0-0.6c0.2-0.2,0.5-0.2,0.6,0C35.3,18.5,35.3,18.8,35.1,19
		z M35.2,16.7c0-0.2,0.2-0.4,0.4-0.4s0.4,0.2,0.4,0.4c0,0.2-0.2,0.4-0.4,0.4S35.2,17,35.2,16.7z M35.9,20.2c-0.2,0-0.4-0.2-0.4-0.4
		c0-0.2,0.2-0.4,0.4-0.4s0.4,0.2,0.4,0.4C36.3,20,36.1,20.2,35.9,20.2z M35.9,14.1c-0.2,0-0.4-0.2-0.4-0.4s0.2-0.4,0.4-0.4
		c0.2,0,0.4,0.2,0.4,0.4S36.1,14.1,35.9,14.1z M36.9,21.2c-0.2,0-0.4-0.2-0.4-0.4c0-0.2,0.2-0.4,0.4-0.4s0.4,0.2,0.4,0.4
		C37.3,21,37.1,21.2,36.9,21.2z M37.1,17.2c-0.2,0-0.4-0.2-0.4-0.4c0-0.2,0.2-0.4,0.4-0.4c0.2,0,0.4,0.2,0.4,0.4
		C37.5,17,37.3,17.2,37.1,17.2z M38.6,17.2c-0.2,0-0.4-0.2-0.4-0.4c0-0.2,0.2-0.4,0.4-0.4s0.4,0.2,0.4,0.4
		C39,17,38.8,17.2,38.6,17.2z"/>
</g>
</svg>
