<?xml version="1.0" encoding="utf-8"?>
<!-- Generator: Adobe Illustrator 21.0.2, SVG Export Plug-In . SVG Version: 6.00 Build 0)  -->
<svg version="1.1" id="Capa_1" xmlns="http://www.w3.org/2000/svg" xmlns:xlink="http://www.w3.org/1999/xlink" x="0px" y="0px"
	 viewBox="0 0 50 50" style="enable-background:new 0 0 50 50;" xml:space="preserve">
<style type="text/css">
	.st0{fill:#FFFFFF;}
</style>
<g>
	<g>
		<polygon class="st0" points="21.8,26.8 26.1,23.3 21.8,23.3 		"/>
	</g>
	<g>
		<path class="st0" d="M34,20.3c0,0.3-0.2,0.5-0.5,0.5c-0.3,0-0.5-0.2-0.5-0.5v-0.9h-2.5v0.9c0,0.3-0.2,0.5-0.5,0.5
			c-0.3,0-0.5-0.2-0.5-0.5v-0.9h-2.5v0.9c0,0.3-0.2,0.5-0.5,0.5c-0.3,0-0.5-0.2-0.5-0.5v-0.9h-2.5v0.9c0,0.3-0.2,0.5-0.5,0.5
			c-0.3,0-0.5-0.2-0.5-0.5v-0.9h-2.5v0.9c0,0.3-0.2,0.5-0.5,0.5c-0.3,0-0.5-0.2-0.5-0.5v-0.9h-1.2v15.4l19.3-15.4H34V20.3z
			 M29.5,23.1l-8,6.4c-0.2,0.1-0.4,0.2-0.6,0.2c-0.1,0-0.3,0-0.4-0.1c-0.3-0.2-0.6-0.5-0.6-0.9v-6.4c0-0.5,0.4-1,1-1h8
			c0.4,0,0.8,0.3,0.9,0.7C30,22.4,29.9,22.8,29.5,23.1z"/>
	</g>
	<g>
		<path class="st0" d="M25,2C12.3,2,2,12.3,2,25c0,12.7,10.3,23,23,23s23-10.3,23-23C48,12.3,37.7,2,25,2z M40.6,19.2L17.6,37.7
			c-0.2,0.1-0.4,0.2-0.6,0.2c-0.1,0-0.3,0-0.4-0.1c-0.3-0.2-0.6-0.5-0.6-0.9V18.4c0-0.5,0.4-1,1-1H40c0.4,0,0.8,0.3,0.9,0.7
			C41.1,18.5,41,19,40.6,19.2z"/>
	</g>
</g>
</svg>
