<?xml version="1.0" encoding="utf-8"?>
<!-- Generator: Adobe Illustrator 21.0.2, SVG Export Plug-In . SVG Version: 6.00 Build 0)  -->
<svg version="1.1" xmlns="http://www.w3.org/2000/svg" xmlns:xlink="http://www.w3.org/1999/xlink" x="0px" y="0px"
	 viewBox="0 0 336 124.4" style="enable-background:new 0 0 336 124.4;" xml:space="preserve">
<style type="text/css">
	.st0{fill-rule:evenodd;clip-rule:evenodd;fill:#FFFFFF;}
</style>
<g id="BG">
</g>
<g id="Logo">
	<path class="st0" d="M80.9,42.4c0,0-2.8-2.2-8-2.2c0,0-7.2-0.8-11.9,5.3c0,0-3.3,3.1-6.1,13.3c0,0-3,10.5-5.3,15.5
		c0,0-2.7,4.7-6.4,7.2c0,0-5.1,4.6-13.7,4.6c0,0-3.6,0.6-8.9-1.6c0,0-4.2-1.9-7.1-5.5H15c0,0,4.4,4.6,12.7,4.6c0,0,7.4,1.5,12.2-5.8
		c0,0,3.5-3.8,5.8-13.3c0,0,2.7-8.5,4.6-12.3c0,0,2.2-4.8,7.6-9.4c0,0,3.6-3.7,10.4-4.5c0,0,5.5-0.9,12.5,2.5V42.4L80.9,42.4z
		 M299.8,84.9c-9.4,0-12.7-2.3-12.7-2.3c-4.1-1.7-6.9-6.3-6.9-6.3c-3.1-5-2.8-11.4-2.8-11.4c0-6.9,2.8-10.7,2.8-10.7
		c2-3.7,6.6-6.2,6.6-6.2c9.1-4.1,13-3,13-3h0.3c0,0,3.9-1.1,13,3c0,0,4.5,2.5,6.6,6.2c0,0,2.8,3.8,2.8,10.7c0,0,0.3,6.4-2.8,11.4
		c0,0-2.8,4.6-6.9,6.3c0,0-3.3,2.3-12.7,2.3H299.8L299.8,84.9z M300.1,82.7c8.3,0,12.2-4.8,12.2-4.8c4.4-4.6,4.1-13.8,4.1-13.8
		c0-9.1-4.7-12.7-4.7-12.7c-4.4-4.4-11.6-3.6-11.6-3.6h-0.3c0,0-7.2-0.8-11.6,3.6c0,0-4.7,3.6-4.7,12.7c0,0-0.3,9.2,4.1,13.8
		c0,0,3.9,4.8,12.2,4.8H300.1L300.1,82.7z M248.3,45.2c9.7,0,13.6,3,13.6,3c6,3.3,6.8,6.1,6.8,6.1c3.6,4.8,2.9,10.8,2.9,10.8
		c0,8.6-3.6,11.6-3.6,11.6c-2.9,4.4-6.9,5.8-6.9,5.8c-4.2,1.7-12.5,1.7-12.5,1.7h-15V45.2H248.3L248.3,45.2z M240,47.7v34.6h8.6
		c0,0,6.3,0.6,10-2.2c0,0,4.4-2.2,5.8-6.3c0,0,1.1-4.1,1.1-8c0,0,0.7-5-1.5-9.5c0,0-1.6-3.6-4.6-5.5c0,0-3-3-10.2-3H240L240,47.7z
		 M180.8,45.2v38.5h31.5v-2.4h-23.8V65.1H207v-2.4h-18.5v-15h23.8v-2.5H180.8L180.8,45.2z M178,45.8c0,0-2.6-1.9-6.1-1.9
		c-3.4,0-7.8,2.1-9.5,3.8c0,0-3.5,2.7-6.8,9.2c0,0-2.5,4.3-4.7,10.2c0,0-2,5.7-3.1,9.1c0,0-2.2,5.6-5.2,6.3c0,0-6.2,2.3-10.9-2.5
		v1.2c0,0,4,3.8,6.7,3.8c0,0,3.7,0.9,8.3-1.4c0,0,4.2-2.2,7.4-8.6c0,0,2.8-5.4,5.3-12.9c0,0,2.5-8.9,3.6-10.2c0,0,1.9-4,5-5.5
		c0,0,1.9-0.9,4.1-0.9c0,0,1.7-0.3,5.9,1.1V45.8L178,45.8z M225.7,44.9v38.9h-7.3V44.9H225.7L225.7,44.9z M126.4,44.9v38.9h-7.3
		V44.9H126.4L126.4,44.9z M76.7,44.9v38.8h7.2V65.1h21.3v18.5h7.4V44.9h-7.3v17.5H83.9V44.9H76.7L76.7,44.9z"/>
</g>
<g id="Space">
</g>
</svg>
