<?xml version="1.0" encoding="utf-8"?>
<!-- Generator: Adobe Illustrator 21.0.2, SVG Export Plug-In . SVG Version: 6.00 Build 0)  -->
<svg version="1.1" xmlns="http://www.w3.org/2000/svg" xmlns:xlink="http://www.w3.org/1999/xlink" x="0px" y="0px"
	 viewBox="0 0 336 124.4" style="enable-background:new 0 0 336 124.4;" xml:space="preserve">
<style type="text/css">
	.st0{fill:#FFFFFF;}
</style>
<g id="BG">
</g>
<g id="Logo">
	<path class="st0" d="M70,64.7c3,0,4.7-2.4,6.2-5.9H65.4l-9.7-39.6l-16.1,8.1c0.9,1.1,1.8,3.2,1,6.6l-8,24.9h-1.1
		c-3,0-4.7,2.4-6.2,5.9h5.6v0c0,0-6.7,18.8-7.3,20.4C21.9,85.2,13.2,86,7.8,98.5c3.5-1.9,9.2-4.2,16.2-4.2c4.3,0,8.5,0.9,12.4,2.8
		l3-7.2c-4.4-2.9-7.6-3.9-7.6-3.9l7.3-21.2h15.6l9.1,34l10.9-3.6l-7.8-30.5H70z M39.4,60l7.9-27.8L54.7,60H39.4z"/>
	<path class="st0" d="M203.5,34.8l-1-0.7c-1.9,1-3.7,2-5.3,2.8c-12.4,6.4-15.9,7.9-15.9,23.5v18.6c0,14.4,11,20.2,17,20.2
		c2,0,4.3-1.2,5.6-3.7v5.8c-0.3,10-6.7,12.1-12.1,12.1c-1.1,0-2.3-0.1-3.6-0.3c0.3,0.9,0.4,1.9,0.6,2.8c2.7,1.4,5.6,2.1,8.6,2.1
		c7.9,0,15.2-5.2,16.9-12.2c0.2-1.2,0.2-3.3,0.2-4.6l0-52.4c0-2.3,1.6-4,2.8-5L203.5,34.8z M203.9,91.4c0,0-0.8,0.1-1.1,0.1
		c-5.3,0-10.5-3.7-10.5-9.2l0.1-35.6l3.2-1.8l8.3,5.4L203.9,91.4z"/>
	<path class="st0" d="M244.2,34.1c-1.9,1-3.7,2-5.3,2.8c-12.4,6.4-15.4,7.9-15.4,23.5v18.6c0,14.4,10.5,20.2,16.5,20.2
		c6.7,0,12.4-4,15.2-10.8l-0.7-0.3c-3.1,2.2-6.3,3.2-9.2,3.4c-0.3,0-0.6,0-0.9,0c-5.4,0-10.6-3.7-10.6-9.2l-0.1-6.9l22.5-9.6l0,0
		l0-17c0-2.3,1.5-4,2.8-5L244.2,34.1z M246.5,63.7l-13,5.1c0,0,0-4,0-6.3c0-11.1,0.5-15.5,0.7-15.7l5.5-3.2l6.8,4.9V63.7z"/>
	<g>
		<path class="st0" d="M321,96.1c-0.6,0-1.4-0.1-2.4-0.5c-2.2-0.9-2.1-5.8-2.1-5.8c0,0,0-45.5,0-49.7c0-3.7-1.9-5.5-4.4-5.5
			c-0.3,0-0.7,0-1.1,0.1l-9.8,5.3l-8.1-5.5L282.9,40l-8.3-5.6l-11.4,5.8c1.4,1,2.1,2,2.1,3.5v55.1h11.1l0-52.7c0,0,4.1-2.1,5.6-2.1
			c2.3,0,4.8,1.7,4.9,4.1v50.6h9.4V46.4c0,0,3.5-2.1,5.1-2.1c2.4,0,4.6,1.6,4.6,3.9l0,42.8c0,5.2,3.5,8.3,8.4,8.3c0.3,0,0.7,0,1.1,0
			c5.4-0.5,6.5-2.2,6.5-2.2l0.4-1.3C322.5,95.8,321.9,96.1,321,96.1z"/>
	</g>
	<path class="st0" d="M164.7,19.1c-1.1,0.6-8.3,4.4-8.3,4.4c0.3,0.3,0.5,0.6,0.7,0.9c5.9,6.8,12.8,5.8,16.8,0.9
		C172,25.2,167.7,24.4,164.7,19.1z"/>
	<g>
		<path class="st0" d="M137.2,37.1v61.4h11.5V25.8L135,32.5C136,33.5,137.2,35.1,137.2,37.1z"/>
	</g>
	<g>
		<path class="st0" d="M160,46.6v52h11.5V35.3L157.8,42C158.8,42.9,160,44.5,160,46.6z"/>
	</g>
	<g>
		<path class="st0" d="M129.5,24l5.1-2.4l-0.6-0.3c-2.7-1.4-8-3.6-13.1-3.6c-1.8,0-4.5,0.4-6.2,1.1c-6.4,3-6.6,8.2-6.6,25.9v54.9
			l0.1,0.1c3.1,3.8,3.9,8.3,2.5,13.2c-0.2,0.8-0.5,1.6-0.8,2.2l0,0.1l0.3,1l0.3-0.1c5.8-2.4,9.5-7.9,9.5-14V65.2h4.1
			c3.5,0,5.2-3.1,6.5-6.1l0.2-0.4h-10.8c0-1.7,0-21.4,0-21.4c0-5.3,0-8.8,1.2-10.8C122.2,24.7,124.5,24,129.5,24z"/>
	</g>
	<g>
		<path class="st0" d="M102.1,24l5.1-2.4l-0.6-0.3c-2.7-1.4-8-3.6-13.1-3.6c-1.8,0-4.5,0.4-6.2,1.1c-6.4,3-6.6,8.2-6.6,25.9v54.9
			l0.1,0.1c3.1,3.8,3.9,8.3,2.5,13.2c-0.2,0.8-0.5,1.5-0.8,2.2l0,0.1l0.3,1l0.3-0.1c5.8-2.4,9.5-7.9,9.5-14V65.2h4.1
			c3.4,0,5.2-3.1,6.5-6.1l0.2-0.4H92.6l0-21.4c0-5.3,0-8.8,1.2-10.8C94.9,24.7,97.2,24,102.1,24z"/>
	</g>
	<g>
		<path class="st0" d="M329.9,89.5c0,0.6-0.1,1.1-0.3,1.5c-0.2,0.5-0.5,0.9-0.8,1.2c-0.3,0.3-0.7,0.6-1.2,0.8
			c-0.4,0.2-0.9,0.3-1.4,0.3c-0.5,0-1-0.1-1.5-0.3c-0.5-0.2-0.9-0.4-1.2-0.8c-0.3-0.3-0.6-0.7-0.8-1.2c-0.2-0.4-0.3-0.9-0.3-1.5
			c0-0.5,0.1-1.1,0.3-1.5c0.2-0.5,0.5-0.9,0.8-1.2c0.3-0.3,0.7-0.6,1.2-0.8c0.4-0.2,0.9-0.3,1.4-0.3c0.5,0,0.9,0.1,1.4,0.3
			c0.4,0.2,0.8,0.4,1.2,0.8c0.3,0.3,0.6,0.7,0.8,1.2C329.8,88.4,329.9,89,329.9,89.5z M329.1,89.5c0-0.4-0.1-0.9-0.2-1.2
			c-0.2-0.4-0.4-0.7-0.6-1c-0.3-0.3-0.6-0.5-0.9-0.6c-0.3-0.2-0.7-0.2-1.1-0.2c-0.4,0-0.8,0.1-1.1,0.2c-0.3,0.1-0.7,0.3-0.9,0.6
			c-0.2,0.3-0.5,0.6-0.6,1c-0.2,0.4-0.2,0.8-0.2,1.2c0,0.4,0.1,0.8,0.2,1.2c0.1,0.4,0.3,0.7,0.6,1c0.3,0.3,0.6,0.5,0.9,0.6
			c0.4,0.2,0.8,0.3,1.2,0.3c0.4,0,0.8-0.1,1.1-0.2c0.4-0.1,0.7-0.4,0.9-0.6c0.3-0.3,0.5-0.6,0.6-1C329,90.4,329.1,90,329.1,89.5z
			 M325.5,91.6h-0.7v-4.1h1.6c0.5,0,0.9,0.1,1.1,0.3c0.3,0.2,0.4,0.5,0.4,0.9c0,0.4-0.1,0.6-0.3,0.8c-0.2,0.2-0.5,0.3-0.8,0.3
			l1.2,1.8h-0.8l-1.1-1.8h-0.6V91.6z M326.2,89.3c0.1,0,0.2,0,0.4,0c0.1,0,0.2,0,0.3-0.1c0.1,0,0.2-0.1,0.2-0.2
			c0.1-0.1,0.1-0.2,0.1-0.3c0-0.1,0-0.2-0.1-0.3c-0.1-0.1-0.1-0.1-0.2-0.2c-0.1,0-0.2-0.1-0.3-0.1c-0.1,0-0.2,0-0.3,0h-0.8v1.2
			H326.2z"/>
	</g>
</g>
<g id="Space">
</g>
</svg>
