<?xml version="1.0" encoding="utf-8"?>
<!-- Generator: Adobe Illustrator 21.0.2, SVG Export Plug-In . SVG Version: 6.00 Build 0)  -->
<svg version="1.1" id="Capa_1" xmlns="http://www.w3.org/2000/svg" xmlns:xlink="http://www.w3.org/1999/xlink" x="0px" y="0px"
	 viewBox="0 0 50 50" style="enable-background:new 0 0 50 50;" xml:space="preserve">
<style type="text/css">
	.st0{fill:#FFFFFF;}
</style>
<g>
	<path class="st0" d="M25,2C12.3,2,2,12.3,2,25c0,12.7,10.3,23,23,23s23-10.3,23-23C48,12.3,37.7,2,25,2z M8.2,19.3
		C8.1,19.3,8,19.2,8,19c0-0.1,0.1-0.3,0.2-0.3l16.6-6.2c0,0,0.1,0,0.1,0c0,0,0.1,0,0.1,0l16.6,6.2c0.1,0,0.2,0.2,0.2,0.3
		c0,0.1-0.1,0.3-0.2,0.3l-16.6,6.2c0,0-0.1,0-0.1,0c0,0-0.1,0-0.1,0L8.2,19.3z M35.5,29.5c0,4-4.4,5.6-10.6,5.6
		c-6.1,0-10.6-1.7-10.6-5.6v-5.9c0-0.1,0-0.1,0.1-0.1c0,0,0.1,0,0.2,0L25,27.3l10.3-3.9c0,0,0.1,0,0.2,0c0,0,0.1,0.1,0.1,0.1V29.5z
		 M43.8,31.8H38c-0.1,0-0.1,0-0.1-0.1c0,0,0-0.1,0-0.2l2.2-4.8v-5c0-0.1,0-0.1,0.1-0.2l1.3-0.5c0.1,0,0.1,0,0.2,0
		c0,0,0.1,0.1,0.1,0.1v5.5l2.2,4.8c0,0.1,0,0.1,0,0.2C43.9,31.8,43.9,31.8,43.8,31.8z"/>
</g>
</svg>
