<?xml version="1.0" encoding="utf-8"?>
<!-- Generator: Adobe Illustrator 21.0.2, SVG Export Plug-In . SVG Version: 6.00 Build 0)  -->
<svg version="1.1" id="Capa_1" xmlns="http://www.w3.org/2000/svg" xmlns:xlink="http://www.w3.org/1999/xlink" x="0px" y="0px"
	 viewBox="0 0 50 50" style="enable-background:new 0 0 50 50;" xml:space="preserve">
<style type="text/css">
	.st0{fill:#FFFFFF;}
</style>
<g>
	<path class="st0" d="M25,2C12.3,2,2,12.3,2,25c0,12.7,10.3,23,23,23s23-10.3,23-23C48,12.3,37.7,2,25,2z M20.8,23
		c0.5-0.5,1.4-0.5,1.9,0l1.5,1.5V14.4c0-0.9,0.6-1.4,1.4-1.4c0.7,0,1.4,0.7,1.4,1.4v10.2l1.5-1.6c0.5-0.5,1.4-0.5,1.9,0
		c0.5,0.5,0.5,1.4,0,1.9l-3.8,3.8c-0.3,0.3-0.6,0.4-1,0.4c-0.3,0-0.7-0.1-1-0.4l-3.8-3.8C20.2,24.3,20.2,23.5,20.8,23z M38,34.4
		c0,0.9-0.6,1.4-1.4,1.4H14.5c-0.9,0-1.4-0.6-1.4-1.4V27c0-0.9,0.5-1.4,1.4-1.4c0.9,0,1.4,0.6,1.4,1.4v6.1h19.3V27
		c0-0.9,0.6-1.4,1.4-1.4c0.8,0,1.4,0.6,1.4,1.4V34.4z"/>
</g>
</svg>
