<?xml version="1.0" encoding="utf-8"?>
<!-- Generator: Adobe Illustrator 21.0.2, SVG Export Plug-In . SVG Version: 6.00 Build 0)  -->
<svg version="1.1" xmlns="http://www.w3.org/2000/svg" xmlns:xlink="http://www.w3.org/1999/xlink" x="0px" y="0px"
	 viewBox="0 0 336 124.4" style="enable-background:new 0 0 336 124.4;" xml:space="preserve">
<style type="text/css">
	.st0{fill-rule:evenodd;clip-rule:evenodd;fill:#FFFFFF;}
</style>
<g id="BG">
</g>
<g id="Logo">
	<path class="st0" d="M22.9,66.4c0.3-1.7,4.7-15.9,6-17.7l5.2,17.6L22.9,66.4z M21.3,71.7c17.1,0,14.2-1.5,16,4.9
		c2.1,7.6,3.2,5.8,14.3,5.9c-1.4-4.3-12.1-37.9-13.1-39.9c-2.4-4.9-6.4-3.9-12.4-4C24.9,40.7,11.3,79,10.5,82.6l6.9-0.1L21.3,71.7z"
		/>
	<path class="st0" d="M121.7,68c1.4,21.5,36.3,20.5,34-4.9C153.8,41.8,120,42.2,121.7,68 M138.7,53.7c3.1,0,5.5,5.3,5.5,11.9
		c0,6.6-2.5,11.9-5.5,11.9c-3.1,0-5.5-5.3-5.5-11.9C133.2,59,135.7,53.7,138.7,53.7"/>
	<path class="st0" d="M167.8,55.1c2.5,2.3,10,12.4,12.7,15.7c8.4,10,7.1,12.2,16.8,11.7c-0.1-8.7,0-17.5,0-26.2
		c0-13.9,2-18.5-6.8-17.6l-0.1,25.7c-1.8-1.5-2.2-2.1-3.5-3.9l-9.2-11.4c-8.3-11-7.9-10.6-17-10.5l0,44l7-0.2L167.8,55.1z"/>
	<path class="st0" d="M252.3,55.1c7.3-0.8,10.1,3.6,9.8,11.1c-0.3,6.8-2.9,11-9.8,10.6L252.3,55.1z M241.1,82.4
		c5.1,0.6,16.8,0.5,21.4-1.1c18.3-6.6,13.5-42.2-10.3-30.4c0.1-11.2,1.4-16.7-11.1-15.6L241.1,82.4z"/>
	<path class="st0" d="M202.2,68c1.4,21.5,36.3,20.5,34-4.9C234.3,41.8,200.5,42.2,202.2,68 M219.2,53.7c3.1,0,5.5,5.3,5.5,11.9
		c0,6.6-2.5,11.9-5.5,11.9c-3.1,0-5.5-5.3-5.5-11.9C213.7,59,216.2,53.7,219.2,53.7"/>
	<path class="st0" d="M288.7,61.6c1.4-11,8.7-11.1,10.4,0H288.7z M307.8,72.8c-8.3,2.8-17.8,4.5-18.9-6.5l20.5-0.2
		c0.9-10.7-3.8-17.5-13.6-18.2c-9.8-0.7-16,4.6-17.8,13c-3.8,17.3,10.7,26.1,23.1,21.2C305.1,80.5,307.1,77.9,307.8,72.8z"/>
	<path class="st0" d="M91.9,54.3h11.9c-2.5,6.7-12.4,21.8-12.4,28.2c5.5,0.1,11.1,0,16.7,0c7.1,0,11.5,0.8,11.5-6.1L105.6,77
		l13.8-28.2l-27.5-0.1L91.9,54.3z"/>
	<path class="st0" d="M55.4,82.6l11.2-0.3c-0.1-9.9,0-19.8,0-29.7c0-12.8,2.4-17.5-11.2-17.5L55.4,82.6z"/>
	<path class="st0" d="M78.3,61.9c2.5-3.6,8.5-10,10.2-13.2c-11.2,0.3-8.5-1.1-13,5c-6.4,8.8-9,9.1-6.6,14.1c1.6,3.4,3.4,7,5.3,10.6
		c2.9,5.8,5.7,4.3,14.6,4.2C86.4,76.2,80.3,68,78.3,61.9"/>
	<path class="st0" d="M314.2,82.6l11.1-0.2c-0.1-9.9,0-19.9,0-29.8c0-12,2.3-18-11.1-17.4L314.2,82.6z"/>
</g>
<g id="Space">
</g>
</svg>
