<?xml version="1.0" encoding="utf-8"?>
<!-- Generator: Adobe Illustrator 21.0.2, SVG Export Plug-In . SVG Version: 6.00 Build 0)  -->
<svg version="1.1" xmlns="http://www.w3.org/2000/svg" xmlns:xlink="http://www.w3.org/1999/xlink" x="0px" y="0px"
	 viewBox="0 0 336 124.4" style="enable-background:new 0 0 336 124.4;" xml:space="preserve">
<style type="text/css">
	.st0{fill:#FFFFFF;}
</style>
<g id="BG">
</g>
<g id="Logo">
	<g>
		<path class="st0" d="M74.4,55.3L91.8,7.9h8.7l17.4,47.4h-9.1l-4.1-11.2h-17l-4.1,11.2H74.4z M90.6,36h11.1l-5.5-15.2L90.6,36z"/>
		<path class="st0" d="M197.3,55.3l17.4-47.4h8.7l17.4,47.4h-9.1l-4.1-11.2h-17l-4.1,11.2H197.3z M213.5,36h11.1L219,20.8L213.5,36z
			"/>
		<path class="st0" d="M122.2,7.9h7L153.5,38V7.9h9.1v47.4h-6.4l-24.9-30.9v30.9h-9.1V7.9z"/>
		<path class="st0" d="M202.2,7.9l0,8.1h-12.5v39.3h-9.1V16h-12.5V7.9H202.2z"/>
		<path class="st0" d="M285.5,55.3l-14.8-20.5c1.9-0.7,3.3-1.7,4.6-3c2.4-2.4,3.7-6.1,3.7-9.8c0-3.7-1.4-7.4-3.7-9.8
			c-2.6-2.8-6.2-4.3-12.3-4.3h-17.8v47.4h9.1l0-19.3h7.5l13.8,19.3H285.5z M254.2,16h8.3c3.1,0,4.7,0.7,5.8,1.9
			c1,1.1,1.6,2.5,1.6,4.1c0,1.6-0.5,2.9-1.6,4c-1.1,1.2-2.6,1.9-5.8,1.9h-8.3V16z"/>
		<g>
			<g>
				<polygon class="st0" points="72.2,7.9 62.3,7.9 45.3,31.6 62.3,55.3 72.2,55.3 55.3,31.6 				"/>
			</g>
			<rect x="40.1" y="7.9" class="st0" width="5" height="47.4"/>
			<rect x="33.9" y="7.9" class="st0" width="6.1" height="47.4"/>
		</g>
	</g>
	<g>
		<path class="st0" d="M55,116.7h-4.8l-18.9-48h7.1l14.1,36.2l14.1-36.2h7.1L55,116.7z"/>
		<path class="st0" d="M179.4,106.4h-4.8l-14.1-22v32.3h-6.9v-48h4.8L177,98l18.5-29.3h4.8v48h-6.9V84.4L179.4,106.4z"/>
		<path class="st0" d="M231.3,88.6v6.5h-15.8v15.1h21.3v6.5h-28.1v-48h27.4v6.5h-20.6v13.4H231.3z"/>
		<path class="st0" d="M265,88.6V75.2h-20.6v-6.5h27.4v48h-28.1v-6.5H265V95.1h-15.8v-6.5H265z"/>
		<path class="st0" d="M100.9,88.6v6.5H85.2v15.1h21.3v6.5H78.3v-48h27.4v6.5H85.2v13.4H100.9z"/>
		<path class="st0" d="M129,68.7c5.1,0,8.4,1.4,10.8,3.8c2.3,2.4,3.8,5.7,3.8,9.4c0,6.8-4.7,11.7-11.1,12.7l16.6,22.1h-8.3
			l-16.3-21.6h-4.9v21.6h-6.9v-48H129z M119.6,88.6h9.1c3.4,0,5.1-0.8,6.4-2.1c1.1-1.2,1.7-2.7,1.7-4.6c0-1.9-0.6-3.4-1.7-4.5
			c-1.2-1.3-3-2.1-6.4-2.1h-9.1V88.6z"/>
		<path class="st0" d="M296.5,68.7c5.1,0,8.4,1.4,10.8,3.8c2.3,2.4,3.8,5.7,3.8,9.4c0,6.8-4.7,11.7-11.1,12.7l16.6,22.1h-8.3
			L292,95.1h-4.9v21.6h-6.9v-48H296.5z M287.1,88.6h9.1c3.4,0,5.1-0.8,6.4-2.1c1.1-1.2,1.7-2.7,1.7-4.6c0-1.9-0.6-3.4-1.7-4.5
			c-1.2-1.3-3-2.1-6.4-2.1h-9.1V88.6z"/>
	</g>
</g>
<g id="Space">
</g>
</svg>
